<svg fill="#000000" xmlns="http://www.w3.org/2000/svg"  viewBox="0 0 64 64" width="64px" height="64px"><path d="M 16 5 L 16 53 L 54 53 L 54 23.154297 C 54 21.117297 53.280703 19.144938 51.970703 17.585938 L 43.109375 7.0429688 C 42.020375 5.7479688 40.416609 5 38.724609 5 L 16 5 z M 20 9 L 37.695312 9 C 40.985312 9 42 10.365078 42 11.580078 C 42 13.365078 40 16 40 16 C 49.761 20.62 49.816406 20.618547 49.816406 24.185547 C 49.816406 29.185547 50 49 50 49 L 20 49 L 20 9 z M 10 11 L 10 55 L 10 58 L 10 59 L 48 59 L 48 56 L 14 55 L 13 11 L 10 11 z"/></svg>